<svg xmlns="http://www.w3.org/2000/svg" xmlns:xlink="http://www.w3.org/1999/xlink" width="519" zoomAndPan="magnify" viewBox="0 0 389.25 104.999996" height="140" preserveAspectRatio="xMidYMid meet" version="1.0"><defs><g/><clipPath id="7ab9548c6b"><path d="M 171.488281 0.101562 L 214 0.101562 L 214 41.65625 L 171.488281 41.65625 Z M 171.488281 0.101562 " clip-rule="nonzero"/></clipPath></defs><g clip-path="url(#7ab9548c6b)"><path fill="#002e6b" d="M 213.046875 20.882812 C 213.046875 32.332031 203.726562 41.65625 192.277344 41.65625 C 180.8125 41.65625 171.492188 32.332031 171.492188 20.882812 C 171.492188 9.433594 180.8125 0.109375 192.261719 0.109375 C 203.726562 0.0976562 213.046875 9.417969 213.046875 20.882812 Z M 172.917969 20.882812 C 172.917969 31.542969 181.605469 40.226562 192.261719 40.226562 C 202.933594 40.226562 211.605469 31.542969 211.605469 20.882812 C 211.605469 10.210938 202.921875 1.539062 192.261719 1.539062 C 181.605469 1.527344 172.917969 10.210938 172.917969 20.882812 Z M 172.917969 20.882812 " fill-opacity="1" fill-rule="nonzero"/></g><path fill="#002e6b" d="M 216.773438 20.882812 C 216.773438 23.335938 214.789062 25.324219 212.332031 25.324219 C 209.878906 25.324219 207.894531 23.335938 207.894531 20.882812 C 207.894531 18.429688 209.878906 16.441406 212.332031 16.441406 C 214.789062 16.441406 216.773438 18.429688 216.773438 20.882812 Z M 209.0625 20.882812 C 209.0625 22.6875 210.53125 24.15625 212.332031 24.15625 C 214.136719 24.15625 215.605469 22.6875 215.605469 20.882812 C 215.605469 19.078125 214.136719 17.609375 212.332031 17.609375 C 210.53125 17.609375 209.0625 19.078125 209.0625 20.882812 Z M 209.0625 20.882812 " fill-opacity="1" fill-rule="nonzero"/><g fill="#002e6b" fill-opacity="1"><g transform="translate(49.929043, 71.566226)"><g><path d="M 6.609375 0.234375 C 5.523438 0.234375 4.523438 -0.03125 3.609375 -0.5625 C 2.691406 -1.09375 1.957031 -1.828125 1.40625 -2.765625 C 0.863281 -3.703125 0.59375 -4.738281 0.59375 -5.875 C 0.59375 -7 0.863281 -8.03125 1.40625 -8.96875 C 1.957031 -9.90625 2.691406 -10.640625 3.609375 -11.171875 C 4.523438 -11.710938 5.523438 -11.984375 6.609375 -11.984375 C 7.929688 -11.984375 9.113281 -11.59375 10.15625 -10.8125 C 11.195312 -10.039062 11.90625 -8.953125 12.28125 -7.546875 L 10.421875 -7.546875 C 10.097656 -8.421875 9.59375 -9.097656 8.90625 -9.578125 C 8.21875 -10.054688 7.453125 -10.296875 6.609375 -10.296875 C 5.859375 -10.296875 5.160156 -10.097656 4.515625 -9.703125 C 3.878906 -9.316406 3.378906 -8.785156 3.015625 -8.109375 C 2.648438 -7.441406 2.46875 -6.695312 2.46875 -5.875 C 2.46875 -5.039062 2.648438 -4.285156 3.015625 -3.609375 C 3.378906 -2.941406 3.878906 -2.410156 4.515625 -2.015625 C 5.160156 -1.628906 5.859375 -1.4375 6.609375 -1.4375 C 7.453125 -1.4375 8.21875 -1.675781 8.90625 -2.15625 C 9.59375 -2.632812 10.097656 -3.3125 10.421875 -4.1875 L 12.28125 -4.1875 C 11.90625 -2.78125 11.195312 -1.691406 10.15625 -0.921875 C 9.113281 -0.148438 7.929688 0.234375 6.609375 0.234375 Z M 6.609375 0.234375 "/></g></g></g><g fill="#002e6b" fill-opacity="1"><g transform="translate(80.446542, 71.566226)"><g><path d="M 6.734375 0.234375 C 5.609375 0.234375 4.578125 -0.03125 3.640625 -0.5625 C 2.710938 -1.09375 1.972656 -1.828125 1.421875 -2.765625 C 0.867188 -3.703125 0.59375 -4.738281 0.59375 -5.875 C 0.59375 -7 0.867188 -8.03125 1.421875 -8.96875 C 1.972656 -9.90625 2.710938 -10.640625 3.640625 -11.171875 C 4.578125 -11.710938 5.609375 -11.984375 6.734375 -11.984375 C 7.847656 -11.984375 8.867188 -11.710938 9.796875 -11.171875 C 10.734375 -10.640625 11.476562 -9.90625 12.03125 -8.96875 C 12.582031 -8.03125 12.859375 -7 12.859375 -5.875 C 12.859375 -4.738281 12.582031 -3.703125 12.03125 -2.765625 C 11.476562 -1.828125 10.734375 -1.09375 9.796875 -0.5625 C 8.867188 -0.03125 7.847656 0.234375 6.734375 0.234375 Z M 6.734375 -1.4375 C 7.515625 -1.4375 8.226562 -1.628906 8.875 -2.015625 C 9.519531 -2.410156 10.035156 -2.941406 10.421875 -3.609375 C 10.804688 -4.285156 11 -5.039062 11 -5.875 C 11 -6.695312 10.804688 -7.441406 10.421875 -8.109375 C 10.035156 -8.785156 9.519531 -9.316406 8.875 -9.703125 C 8.226562 -10.097656 7.515625 -10.296875 6.734375 -10.296875 C 5.953125 -10.296875 5.234375 -10.097656 4.578125 -9.703125 C 3.929688 -9.316406 3.414062 -8.785156 3.03125 -8.109375 C 2.65625 -7.441406 2.46875 -6.695312 2.46875 -5.875 C 2.46875 -5.039062 2.65625 -4.285156 3.03125 -3.609375 C 3.414062 -2.941406 3.929688 -2.410156 4.578125 -2.015625 C 5.234375 -1.628906 5.953125 -1.4375 6.734375 -1.4375 Z M 6.734375 -1.4375 "/></g></g></g><g fill="#002e6b" fill-opacity="1"><g transform="translate(111.65871, 71.566226)"><g><path d="M 14.375 -11.984375 C 15.238281 -11.984375 16.003906 -11.757812 16.671875 -11.3125 C 17.335938 -10.875 17.859375 -10.273438 18.234375 -9.515625 C 18.609375 -8.765625 18.796875 -7.910156 18.796875 -6.953125 L 18.796875 0 L 17 0 L 17 -6.953125 C 17 -7.921875 16.738281 -8.71875 16.21875 -9.34375 C 15.707031 -9.976562 15.007812 -10.296875 14.125 -10.296875 C 13.570312 -10.296875 13.054688 -10.144531 12.578125 -9.84375 C 12.109375 -9.550781 11.726562 -9.148438 11.4375 -8.640625 C 11.15625 -8.128906 11.015625 -7.566406 11.015625 -6.953125 L 11.015625 0 L 9.21875 0 L 9.21875 -6.953125 C 9.21875 -7.921875 8.957031 -8.71875 8.4375 -9.34375 C 7.925781 -9.976562 7.226562 -10.296875 6.34375 -10.296875 C 5.789062 -10.296875 5.273438 -10.144531 4.796875 -9.84375 C 4.328125 -9.550781 3.945312 -9.148438 3.65625 -8.640625 C 3.375 -8.128906 3.234375 -7.566406 3.234375 -6.953125 L 3.234375 0 L 1.4375 0 L 1.4375 -11.734375 L 3.234375 -11.734375 L 3.234375 -10.1875 C 3.648438 -10.769531 4.144531 -11.210938 4.71875 -11.515625 C 5.289062 -11.828125 5.914062 -11.984375 6.59375 -11.984375 C 7.40625 -11.984375 8.15625 -11.757812 8.84375 -11.3125 C 9.539062 -10.875 10.066406 -10.296875 10.421875 -9.578125 C 10.835938 -10.347656 11.390625 -10.941406 12.078125 -11.359375 C 12.765625 -11.773438 13.53125 -11.984375 14.375 -11.984375 Z M 14.375 -11.984375 "/></g></g></g><g fill="#002e6b" fill-opacity="1"><g transform="translate(149.530055, 71.566226)"><g><path d="M 14.375 -11.984375 C 15.238281 -11.984375 16.003906 -11.757812 16.671875 -11.3125 C 17.335938 -10.875 17.859375 -10.273438 18.234375 -9.515625 C 18.609375 -8.765625 18.796875 -7.910156 18.796875 -6.953125 L 18.796875 0 L 17 0 L 17 -6.953125 C 17 -7.921875 16.738281 -8.71875 16.21875 -9.34375 C 15.707031 -9.976562 15.007812 -10.296875 14.125 -10.296875 C 13.570312 -10.296875 13.054688 -10.144531 12.578125 -9.84375 C 12.109375 -9.550781 11.726562 -9.148438 11.4375 -8.640625 C 11.15625 -8.128906 11.015625 -7.566406 11.015625 -6.953125 L 11.015625 0 L 9.21875 0 L 9.21875 -6.953125 C 9.21875 -7.921875 8.957031 -8.71875 8.4375 -9.34375 C 7.925781 -9.976562 7.226562 -10.296875 6.34375 -10.296875 C 5.789062 -10.296875 5.273438 -10.144531 4.796875 -9.84375 C 4.328125 -9.550781 3.945312 -9.148438 3.65625 -8.640625 C 3.375 -8.128906 3.234375 -7.566406 3.234375 -6.953125 L 3.234375 0 L 1.4375 0 L 1.4375 -11.734375 L 3.234375 -11.734375 L 3.234375 -10.1875 C 3.648438 -10.769531 4.144531 -11.210938 4.71875 -11.515625 C 5.289062 -11.828125 5.914062 -11.984375 6.59375 -11.984375 C 7.40625 -11.984375 8.15625 -11.757812 8.84375 -11.3125 C 9.539062 -10.875 10.066406 -10.296875 10.421875 -9.578125 C 10.835938 -10.347656 11.390625 -10.941406 12.078125 -11.359375 C 12.765625 -11.773438 13.53125 -11.984375 14.375 -11.984375 Z M 14.375 -11.984375 "/></g></g></g><g fill="#002e6b" fill-opacity="1"><g transform="translate(187.4014, 71.566226)"><g><path d="M 6.421875 0.234375 C 5.410156 0.234375 4.519531 0.015625 3.75 -0.421875 C 2.976562 -0.859375 2.378906 -1.46875 1.953125 -2.25 C 1.523438 -3.03125 1.3125 -3.914062 1.3125 -4.90625 L 1.3125 -11.734375 L 3.109375 -11.734375 L 3.109375 -4.90625 C 3.109375 -3.882812 3.410156 -3.050781 4.015625 -2.40625 C 4.628906 -1.757812 5.429688 -1.4375 6.421875 -1.4375 C 7.410156 -1.4375 8.207031 -1.757812 8.8125 -2.40625 C 9.414062 -3.050781 9.71875 -3.882812 9.71875 -4.90625 L 9.71875 -11.734375 L 11.515625 -11.734375 L 11.515625 -4.90625 C 11.515625 -3.914062 11.300781 -3.03125 10.875 -2.25 C 10.457031 -1.46875 9.859375 -0.859375 9.078125 -0.421875 C 8.304688 0.015625 7.421875 0.234375 6.421875 0.234375 Z M 6.421875 0.234375 "/></g></g></g><g fill="#002e6b" fill-opacity="1"><g transform="translate(217.990768, 71.566226)"><g><path d="M 6.953125 -11.984375 C 7.890625 -11.984375 8.722656 -11.753906 9.453125 -11.296875 C 10.179688 -10.835938 10.742188 -10.21875 11.140625 -9.4375 C 11.535156 -8.65625 11.734375 -7.785156 11.734375 -6.828125 L 11.734375 0 L 9.9375 0 L 9.9375 -6.828125 C 9.9375 -7.867188 9.648438 -8.707031 9.078125 -9.34375 C 8.503906 -9.976562 7.710938 -10.296875 6.703125 -10.296875 C 6.066406 -10.296875 5.484375 -10.144531 4.953125 -9.84375 C 4.429688 -9.550781 4.015625 -9.140625 3.703125 -8.609375 C 3.390625 -8.085938 3.234375 -7.492188 3.234375 -6.828125 L 3.234375 0 L 1.4375 0 L 1.4375 -11.734375 L 3.234375 -11.734375 L 3.234375 -10.1875 C 3.710938 -10.769531 4.265625 -11.210938 4.890625 -11.515625 C 5.523438 -11.828125 6.210938 -11.984375 6.953125 -11.984375 Z M 6.953125 -11.984375 "/></g></g></g><g fill="#002e6b" fill-opacity="1"><g transform="translate(248.795716, 71.566226)"><g><path d="M 3.234375 0 L 1.4375 0 L 1.4375 -11.734375 L 3.234375 -11.734375 Z M 3.359375 -14.25 L 1.328125 -14.25 L 1.328125 -14.96875 L 3.359375 -14.96875 Z M 3.359375 -14.25 "/></g></g></g><g fill="#002e6b" fill-opacity="1"><g transform="translate(271.216786, 71.566226)"><g><path d="M 6.59375 -11.265625 L 3.59375 -11.265625 L 3.59375 -3.59375 C 3.59375 -3 3.765625 -2.53125 4.109375 -2.1875 C 4.453125 -1.84375 4.921875 -1.671875 5.515625 -1.671875 L 6.59375 -1.671875 L 6.59375 0 L 5.390625 0 C 4.316406 0 3.445312 -0.320312 2.78125 -0.96875 C 2.125 -1.613281 1.796875 -2.445312 1.796875 -3.46875 L 1.796875 -11.265625 L -0.125 -11.265625 L -0.125 -11.734375 L 1.796875 -11.734375 L 1.796875 -14.84375 L 3.59375 -14.84375 L 3.59375 -11.734375 L 6.59375 -11.734375 Z M 6.59375 -11.265625 "/></g></g></g><g fill="#002e6b" fill-opacity="1"><g transform="translate(295.673957, 71.566226)"><g><path d="M 10.921875 -11.734375 L 12.71875 -11.734375 L 12.71875 0 L 10.921875 0 L 10.921875 -1.796875 C 10.429688 -1.171875 9.804688 -0.675781 9.046875 -0.3125 C 8.296875 0.0507812 7.484375 0.234375 6.609375 0.234375 C 5.535156 0.234375 4.535156 -0.03125 3.609375 -0.5625 C 2.691406 -1.09375 1.957031 -1.828125 1.40625 -2.765625 C 0.863281 -3.703125 0.59375 -4.738281 0.59375 -5.875 C 0.59375 -7 0.863281 -8.03125 1.40625 -8.96875 C 1.957031 -9.90625 2.691406 -10.640625 3.609375 -11.171875 C 4.535156 -11.710938 5.535156 -11.984375 6.609375 -11.984375 C 7.484375 -11.984375 8.296875 -11.796875 9.046875 -11.421875 C 9.804688 -11.054688 10.429688 -10.5625 10.921875 -9.9375 Z M 6.75 -1.4375 C 7.53125 -1.4375 8.25 -1.628906 8.90625 -2.015625 C 9.5625 -2.410156 10.082031 -2.941406 10.46875 -3.609375 C 10.851562 -4.285156 11.046875 -5.039062 11.046875 -5.875 C 11.046875 -6.695312 10.851562 -7.441406 10.46875 -8.109375 C 10.082031 -8.785156 9.5625 -9.316406 8.90625 -9.703125 C 8.25 -10.097656 7.53125 -10.296875 6.75 -10.296875 C 5.96875 -10.296875 5.25 -10.097656 4.59375 -9.703125 C 3.9375 -9.316406 3.414062 -8.785156 3.03125 -8.109375 C 2.65625 -7.441406 2.46875 -6.695312 2.46875 -5.875 C 2.46875 -5.039062 2.65625 -4.285156 3.03125 -3.609375 C 3.414062 -2.941406 3.9375 -2.410156 4.59375 -2.015625 C 5.25 -1.628906 5.96875 -1.4375 6.75 -1.4375 Z M 6.75 -1.4375 "/></g></g></g><g fill="#002e6b" fill-opacity="1"><g transform="translate(327.580793, 71.566226)"><g><path d="M 5.46875 0.234375 C 4.09375 0.234375 2.976562 -0.132812 2.125 -0.875 C 1.28125 -1.613281 0.828125 -2.640625 0.765625 -3.953125 L 2.5625 -3.953125 C 2.625 -3.117188 2.898438 -2.488281 3.390625 -2.0625 C 3.890625 -1.644531 4.582031 -1.4375 5.46875 -1.4375 C 6.195312 -1.4375 6.800781 -1.585938 7.28125 -1.890625 C 7.757812 -2.191406 8 -2.625 8 -3.1875 C 8 -3.613281 7.867188 -3.957031 7.609375 -4.21875 C 7.359375 -4.488281 7.046875 -4.6875 6.671875 -4.8125 C 6.296875 -4.9375 5.765625 -5.082031 5.078125 -5.25 C 4.210938 -5.4375 3.523438 -5.628906 3.015625 -5.828125 C 2.503906 -6.023438 2.066406 -6.347656 1.703125 -6.796875 C 1.335938 -7.242188 1.15625 -7.851562 1.15625 -8.625 C 1.15625 -9.257812 1.34375 -9.832031 1.71875 -10.34375 C 2.09375 -10.851562 2.597656 -11.253906 3.234375 -11.546875 C 3.867188 -11.835938 4.570312 -11.984375 5.34375 -11.984375 C 6.550781 -11.984375 7.5625 -11.617188 8.375 -10.890625 C 9.195312 -10.160156 9.644531 -9.164062 9.71875 -7.90625 L 7.921875 -7.90625 C 7.847656 -8.707031 7.570312 -9.304688 7.09375 -9.703125 C 6.625 -10.097656 6.015625 -10.296875 5.265625 -10.296875 C 4.628906 -10.296875 4.09375 -10.144531 3.65625 -9.84375 C 3.226562 -9.550781 3.015625 -9.144531 3.015625 -8.625 C 3.015625 -8.238281 3.140625 -7.925781 3.390625 -7.6875 C 3.640625 -7.445312 3.941406 -7.265625 4.296875 -7.140625 C 4.660156 -7.015625 5.171875 -6.867188 5.828125 -6.703125 C 6.679688 -6.515625 7.375 -6.3125 7.90625 -6.09375 C 8.445312 -5.875 8.910156 -5.535156 9.296875 -5.078125 C 9.679688 -4.617188 9.875 -3.988281 9.875 -3.1875 C 9.875 -2.164062 9.445312 -1.335938 8.59375 -0.703125 C 7.75 -0.078125 6.707031 0.234375 5.46875 0.234375 Z M 5.46875 0.234375 "/></g></g></g><g fill="#002e6b" fill-opacity="1"><g transform="translate(157.619501, 94.322343)"><g><path d="M 2.515625 0 L 1.171875 0 L 1.171875 -12.9375 L 2.515625 -12.9375 Z M 2.515625 0 "/></g></g></g><g fill="#002e6b" fill-opacity="1"><g transform="translate(174.614742, 94.322343)"><g><path d="M 8.1875 -8.796875 L 9.546875 -8.796875 L 9.546875 0 L 8.1875 0 L 8.1875 -1.34375 C 7.820312 -0.875 7.359375 -0.503906 6.796875 -0.234375 C 6.234375 0.0351562 5.617188 0.171875 4.953125 0.171875 C 4.148438 0.171875 3.398438 -0.0234375 2.703125 -0.421875 C 2.015625 -0.828125 1.46875 -1.378906 1.0625 -2.078125 C 0.65625 -2.773438 0.453125 -3.550781 0.453125 -4.40625 C 0.453125 -5.25 0.65625 -6.019531 1.0625 -6.71875 C 1.46875 -7.425781 2.015625 -7.976562 2.703125 -8.375 C 3.398438 -8.78125 4.148438 -8.984375 4.953125 -8.984375 C 5.617188 -8.984375 6.234375 -8.84375 6.796875 -8.5625 C 7.359375 -8.289062 7.820312 -7.921875 8.1875 -7.453125 Z M 5.0625 -1.078125 C 5.65625 -1.078125 6.195312 -1.222656 6.6875 -1.515625 C 7.175781 -1.804688 7.5625 -2.203125 7.84375 -2.703125 C 8.132812 -3.210938 8.28125 -3.78125 8.28125 -4.40625 C 8.28125 -5.03125 8.132812 -5.59375 7.84375 -6.09375 C 7.5625 -6.59375 7.175781 -6.988281 6.6875 -7.28125 C 6.195312 -7.570312 5.65625 -7.71875 5.0625 -7.71875 C 4.476562 -7.71875 3.941406 -7.570312 3.453125 -7.28125 C 2.960938 -6.988281 2.570312 -6.59375 2.28125 -6.09375 C 1.988281 -5.59375 1.84375 -5.03125 1.84375 -4.40625 C 1.84375 -3.78125 1.988281 -3.210938 2.28125 -2.703125 C 2.570312 -2.203125 2.960938 -1.804688 3.453125 -1.515625 C 3.941406 -1.222656 4.476562 -1.078125 5.0625 -1.078125 Z M 5.0625 -1.078125 "/></g></g></g><g fill="#002e6b" fill-opacity="1"><g transform="translate(198.544603, 94.322343)"><g><path d="M 5.75 -8.984375 C 6.550781 -8.984375 7.296875 -8.78125 7.984375 -8.375 C 8.679688 -7.976562 9.234375 -7.425781 9.640625 -6.71875 C 10.054688 -6.019531 10.265625 -5.25 10.265625 -4.40625 C 10.265625 -3.550781 10.054688 -2.773438 9.640625 -2.078125 C 9.234375 -1.378906 8.679688 -0.828125 7.984375 -0.421875 C 7.296875 -0.0234375 6.550781 0.171875 5.75 0.171875 C 5.09375 0.171875 4.484375 0.0351562 3.921875 -0.234375 C 3.359375 -0.503906 2.890625 -0.875 2.515625 -1.34375 L 2.515625 0 L 1.171875 0 L 1.171875 -12.9375 L 2.515625 -12.9375 L 2.515625 -7.453125 C 2.890625 -7.921875 3.359375 -8.289062 3.921875 -8.5625 C 4.484375 -8.84375 5.09375 -8.984375 5.75 -8.984375 Z M 5.65625 -1.078125 C 6.25 -1.078125 6.785156 -1.222656 7.265625 -1.515625 C 7.753906 -1.804688 8.140625 -2.203125 8.421875 -2.703125 C 8.710938 -3.210938 8.859375 -3.78125 8.859375 -4.40625 C 8.859375 -5.03125 8.710938 -5.59375 8.421875 -6.09375 C 8.140625 -6.59375 7.753906 -6.988281 7.265625 -7.28125 C 6.785156 -7.570312 6.25 -7.71875 5.65625 -7.71875 C 5.070312 -7.71875 4.53125 -7.570312 4.03125 -7.28125 C 3.53125 -6.988281 3.132812 -6.59375 2.84375 -6.09375 C 2.5625 -5.59375 2.421875 -5.03125 2.421875 -4.40625 C 2.421875 -3.78125 2.5625 -3.210938 2.84375 -2.703125 C 3.132812 -2.203125 3.53125 -1.804688 4.03125 -1.515625 C 4.53125 -1.222656 5.070312 -1.078125 5.65625 -1.078125 Z M 5.65625 -1.078125 "/></g></g></g><g fill="#002e6b" fill-opacity="1"><g transform="translate(222.56429, 94.322343)"><g><path d="M 4.09375 0.171875 C 3.0625 0.171875 2.226562 -0.101562 1.59375 -0.65625 C 0.957031 -1.207031 0.617188 -1.976562 0.578125 -2.96875 L 1.921875 -2.96875 C 1.972656 -2.34375 2.179688 -1.867188 2.546875 -1.546875 C 2.921875 -1.234375 3.4375 -1.078125 4.09375 -1.078125 C 4.644531 -1.078125 5.097656 -1.191406 5.453125 -1.421875 C 5.816406 -1.648438 6 -1.972656 6 -2.390625 C 6 -2.710938 5.898438 -2.972656 5.703125 -3.171875 C 5.515625 -3.367188 5.28125 -3.515625 5 -3.609375 C 4.71875 -3.703125 4.320312 -3.8125 3.8125 -3.9375 C 3.164062 -4.082031 2.648438 -4.226562 2.265625 -4.375 C 1.878906 -4.519531 1.546875 -4.757812 1.265625 -5.09375 C 0.992188 -5.4375 0.859375 -5.894531 0.859375 -6.46875 C 0.859375 -6.945312 1 -7.378906 1.28125 -7.765625 C 1.5625 -8.148438 1.941406 -8.445312 2.421875 -8.65625 C 2.898438 -8.875 3.425781 -8.984375 4 -8.984375 C 4.914062 -8.984375 5.675781 -8.707031 6.28125 -8.15625 C 6.894531 -7.613281 7.234375 -6.867188 7.296875 -5.921875 L 5.953125 -5.921875 C 5.890625 -6.523438 5.679688 -6.972656 5.328125 -7.265625 C 4.972656 -7.566406 4.515625 -7.71875 3.953125 -7.71875 C 3.472656 -7.71875 3.070312 -7.609375 2.75 -7.390625 C 2.425781 -7.171875 2.265625 -6.863281 2.265625 -6.46875 C 2.265625 -6.175781 2.359375 -5.941406 2.546875 -5.765625 C 2.734375 -5.585938 2.957031 -5.445312 3.21875 -5.34375 C 3.488281 -5.25 3.867188 -5.144531 4.359375 -5.03125 C 5.015625 -4.882812 5.539062 -4.726562 5.9375 -4.5625 C 6.34375 -4.40625 6.6875 -4.148438 6.96875 -3.796875 C 7.257812 -3.453125 7.40625 -2.984375 7.40625 -2.390625 C 7.40625 -1.617188 7.085938 -1 6.453125 -0.53125 C 5.816406 -0.0625 5.03125 0.171875 4.09375 0.171875 Z M 4.09375 0.171875 "/></g></g></g></svg>